<svg xmlns="http://www.w3.org/2000/svg" viewBox="0 0 800 500" preserveAspectRatio="xMidYMid slice"><rect width="800" height="500" fill="#cddff2"/>
<rect x="285" y="60" width="230" height="480" rx="38" fill="#ffffff"/>
<rect x="311" y="96" width="70" height="10" rx="5" fill="#1d4f8c"/>
<rect x="311" y="120" width="130" height="26" rx="8" fill="#1d4f8c"/>
<rect x="311" y="160" width="86" height="8" rx="4" fill="#9db9d8"/>
<rect x="311" y="204" width="34" height="90" rx="8" fill="#cddff2"/>
<rect x="357" y="184" width="34" height="110" rx="8" fill="#9db9d8"/>
<rect x="403" y="224" width="34" height="70" rx="8" fill="#cddff2"/>
<rect x="449" y="164" width="34" height="130" rx="8" fill="#1d4f8c"/>
<rect x="311" y="322" width="178" height="50" rx="14" fill="#eef4fb"/>
<circle cx="336" cy="347" r="12" fill="#1d4f8c"/>
<rect x="358" y="336" width="80" height="8" rx="4" fill="#1d4f8c"/>
<rect x="358" y="352" width="50" height="8" rx="4" fill="#9db9d8"/>
<rect x="311" y="384" width="178" height="50" rx="14" fill="#eef4fb"/>
<circle cx="336" cy="409" r="12" fill="#5b8fc9"/>
<rect x="358" y="398" width="70" height="8" rx="4" fill="#1d4f8c"/>
<rect x="358" y="414" width="44" height="8" rx="4" fill="#9db9d8"/>
</svg>