<svg xmlns="http://www.w3.org/2000/svg" viewBox="0 0 800 500" preserveAspectRatio="xMidYMid slice"><rect width="800" height="500" fill="#f1dcc3"/>
<rect x="150" y="120" width="210" height="440" rx="34" fill="#fffaf3"/>
<rect x="172" y="150" width="70" height="10" rx="5" fill="#7a4a24"/>
<rect x="172" y="176" width="120" height="8" rx="4" fill="#d9b48a"/>
<rect x="172" y="220" width="166" height="70" rx="16" fill="#f1dcc3"/>
<circle cx="204" cy="255" r="18" fill="#7a4a24"/>
<rect x="232" y="240" width="76" height="8" rx="4" fill="#7a4a24"/>
<rect x="232" y="258" width="50" height="8" rx="4" fill="#d9b48a"/>
<rect x="172" y="306" width="166" height="70" rx="16" fill="#f1dcc3"/>
<circle cx="204" cy="341" r="18" fill="#a8703d"/>
<rect x="232" y="326" width="70" height="8" rx="4" fill="#7a4a24"/>
<rect x="232" y="344" width="44" height="8" rx="4" fill="#d9b48a"/>
<rect x="440" y="60" width="230" height="480" rx="38" fill="#ffffff"/>
<rect x="464" y="96" width="80" height="10" rx="5" fill="#7a4a24"/>
<circle cx="555" cy="230" r="70" fill="#f1dcc3"/>
<path d="M520 200h70l-8 62c-1 8-8 14-16 14h-22c-8 0-15-6-16-14l-8-62Z" fill="#7a4a24"/>
<path d="M590 214h10a10 10 0 0 1 0 22h-14" fill="none" stroke="#7a4a24" stroke-width="7" stroke-linecap="round"/>
<rect x="464" y="330" width="182" height="10" rx="5" fill="#d9b48a"/>
<rect x="464" y="352" width="120" height="10" rx="5" fill="#ead3b5"/>
<rect x="464" y="400" width="182" height="52" rx="26" fill="#7a4a24"/>
</svg>